<?xml version="1.0" encoding="UTF-8" standalone="no"?>
<!DOCTYPE svg PUBLIC "-//W3C//DTD SVG 1.1//EN" "http://www.w3.org/Graphics/SVG/1.1/DTD/svg11.dtd">
<!-- Generado por Microsoft Visio, SVG Export camaKing.svg Página-1 -->
<svg xmlns="http://www.w3.org/2000/svg" xmlns:xlink="http://www.w3.org/1999/xlink" xmlns:ev="http://www.w3.org/2001/xml-events"
		xmlns:v="http://schemas.microsoft.com/visio/2003/SVGExtensions/" width="0.848081in" height="1.30144in"
		viewBox="0 0 61.0619 93.704" xml:space="preserve" color-interpolation-filters="sRGB" class="st5">
	<v:documentProperties v:langID="3082" v:metric="true" v:viewMarkup="false"/>

	<style type="text/css">
	<![CDATA[
		.st1 {fill:#663700;stroke:#000000;stroke-width:0.75}
		.st2 {fill:#efefef;stroke:#000000;stroke-width:0.75}
		.st3 {fill:#538135;stroke:#000000;stroke-width:0.25}
		.st4 {fill:#538135;stroke:#000000;stroke-width:0.75}
		.st5 {fill:none;fill-rule:evenodd;font-size:12px;overflow:visible;stroke-linecap:square;stroke-miterlimit:3}
	]]>
	</style>

	<g v:mID="0" v:index="1" v:groupContext="foregroundPage">
		<title>Página-1</title>
		<v:pageProperties v:drawingScale="0.0393701" v:pageScale="0.0393701" v:drawingUnits="24" v:shadowOffsetX="8.50394"
				v:shadowOffsetY="-8.50394"/>
		<v:layer v:name="Muebles móviles" v:index="0"/>
		<v:layer v:name="Mobiliario" v:index="1"/>
		<g id="group1-1" transform="translate(1.37666,-22.3996)" v:mID="1" v:groupContext="group" v:layerMember="0;1">
			<v:custProps>
				<v:cp v:nameU="ShapeClass" v:lbl="Clase de forma" v:invis="true" v:langID="3082" v:val="VT4(Activo)"/>
				<v:cp v:nameU="ShapeType" v:lbl="Tipo de forma" v:invis="true" v:langID="3082" v:val="VT4(Mobiliario)"/>
				<v:cp v:nameU="SubShapeType" v:lbl="Tipo de subforma" v:invis="true" v:langID="3082" v:val="VT4(Cama)"/>
				<v:cp v:nameU="ID" v:lbl="Id." v:type="0" v:invis="false" v:langID="3082"/>
				<v:cp v:nameU="Name" v:lbl="Nombre" v:type="0" v:invis="false" v:langID="3082"/>
				<v:cp v:nameU="Department" v:lbl="Departamento" v:type="0" v:invis="false" v:langID="3082"/>
				<v:cp v:nameU="BelongsTo" v:lbl="Pertenece a" v:type="0" v:invis="true" v:langID="3082"/>
				<v:cp v:nameU="Modify" v:lbl="Modificado" v:type="5" v:invis="false" v:langID="3082"/>
				<v:cp v:nameU="AssetNumber" v:lbl="Número de activo" v:type="0" v:invis="false" v:langID="3082"/>
				<v:cp v:nameU="SerialNumber" v:lbl="Número de serie" v:type="0" v:invis="false" v:langID="3082"/>
				<v:cp v:nameU="ProductDescription" v:lbl="Descripción del producto" v:type="0" v:invis="false" v:langID="3082"/>
				<v:cp v:nameU="PurchaseDate" v:lbl="Fecha de compra" v:type="5" v:invis="false" v:langID="3082"/>
				<v:cp v:nameU="ProductNumber" v:lbl="Número de producto" v:type="0" v:langID="3082"/>
				<v:cp v:nameU="BaseElevation" v:lbl="Elevación de la base" v:type="2" v:langID="3082"/>
			</v:custProps>
			<v:userDefs>
				<v:ud v:nameU="3D_type" v:val="VT0(1):26"/>
				<v:ud v:nameU="3D_model_id" v:val="VT4(bed, king)"/>
				<v:ud v:nameU="visVersion" v:val="VT0(16):26"/>
				<v:ud v:nameU="SolSH" v:val="VT4({5D50005D-537C-4738-9C46-130C74335A6D})"/>
				<v:ud v:nameU="ShapeClass" v:prompt="Activo" v:val="VT0(2):26"/>
			</v:userDefs>
			<title>Cama &#34;King&#34;</title>
			<g id="group2-2" transform="translate(-1.12666,-0.000358364)" v:mID="2" v:groupContext="group" v:layerMember="0;1">
				<title>Hoja.2</title>
				<g id="shape3-3" v:mID="3" v:groupContext="shape" transform="translate(2.69149,-61.3759)">
					<title>Hoja.3</title>
					<path d="M0 84.53 L55.78 84.53 L55.78 86.09 L55.27 87.38 L55.27 93.7 L0.51 93.7 L0.51 87.38 L0 86.09 L0 84.53
								 Z" class="st1"/>
				</g>
				<g id="shape4-5" v:mID="4" v:groupContext="shape" transform="translate(3.18513,-3.55271E-13)">
					<title>Hoja.4</title>
					<path d="M54.76 91.87 L54.76 28.2 C54.76 27.19 53.96 26.37 52.97 26.37 L1.79 26.37 C0.8 26.37 0 27.19 0 28.2
								 L0 91.87 C0 92.88 0.8 93.7 1.79 93.7 L52.97 93.7 C53.96 93.7 54.76 92.88 54.76 91.87 Z"
							class="st2"/>
				</g>
				<g id="shape5-7" v:mID="5" v:groupContext="shape" transform="translate(0,-49.1856)">
					<title>Hoja.5</title>
					<path d="M40.25 89.38 C40.25 89.38 40.7 89.28 41.87 85.1 C42.46 83 42.25 82.45 42.48 81.01 C42.76 79.23 43.87
								 77.68 43.57 76.85 C43.57 76.85 43.42 75.9 44.24 76.53 C45.07 77.15 47.65 78.31 48.09 78.39 C48.64
								 78.48 49.99 78.65 50.67 78.92 C50.86 79 51.49 79.31 51.78 79.39 C53.15 79.8 55.65 80.07 57.33 80.69
								 C59.02 81.31 60.21 80.88 60.21 80.88 C60.21 80.88 60.76 80.96 60.49 81.4 C60.21 81.85 59.99 82.64
								 59.83 83.05 C59.68 83.46 59.33 84.15 59.19 84.67 C59.04 85.19 58.87 86.28 58.87 86.28 C58.87 86.28
								 58.84 87.29 58.42 88.25 C57.99 89.22 57.69 93.38 57.69 93.38 C57.69 93.38 57.8 93.98 57.05 93.55
								 C56.1 92.99 51.52 90.92 48.71 90.47 C45.89 90.02 43.31 89.59 41.49 89.63 C41.17 89.64 39.92 89.83
								 40.25 89.38 ZM20.83 87.39 C20.92 85.93 21.52 85.11 21.7 84.63 C21.79 84.39 21.46 84.06 21.46 83.63
								 C21.46 83.2 21.45 82.86 21.45 82.86 C21.45 82.86 21.49 82.19 21.59 82.07 C21.7 81.95 21.51 81.43
								 21.46 81.22 C21.34 80.67 21.26 79.37 21.54 78.98 C21.54 78.98 21.76 78.77 21.33 78.45 C21.33 78.45
								 20.51 77.29 20.83 76.74 C20.83 76.74 20.98 76.42 21.7 77.12 C21.7 77.12 22.52 77.24 22.74 77.32
								 C22.97 77.4 23.95 77.28 24.45 77.49 C24.94 77.71 26.15 77.55 26.32 77.65 C26.49 77.76 30.36 77.84
								 30.36 77.84 L33.43 77.81 C33.43 77.81 36.14 77.49 36.7 77.63 C36.7 77.63 37.07 77.2 37.75 77.18
								 C37.75 77.18 38.56 76.77 38.8 76.76 C39.03 76.74 39.15 77 39.15 77.44 C39.15 77.44 38.76 79.77 38.64
								 80.14 C38.52 80.5 38.69 81.42 38.69 81.42 C38.69 81.42 38.98 84.84 38.9 85.37 C38.9 85.37 39.01
								 85.86 39.08 85.94 C39.16 86.02 39.18 86.31 39.2 86.47 C39.22 86.82 39.56 86.79 39.57 87.61 C39.57
								 87.61 40.8 88.96 39.7 88.85 C38.6 88.75 37.67 88.2 36.98 88.05 C35.58 87.73 31.79 87.86 31.24 87.97
								 C30.69 88.07 23.38 88.21 23.38 88.21 C23.38 88.21 21.68 88.5 21.55 88.61 C21.42 88.72 19.93 89.34
								 20.06 88.59 C20.19 87.83 20.8 87.74 20.83 87.39 ZM19.53 88.79 C19.55 88.9 19.48 89.01 19.38 89.03
								 C19.38 89.03 16.41 89.49 15.54 89.65 C14.04 89.91 11.13 90.89 9.64 91.19 C8.53 91.41 6.25 91.5 5.16
								 91.79 C4.59 91.95 2.98 92.7 2.98 92.7 C2.88 92.73 2.77 92.66 2.75 92.55 C2.75 92.55 2.39 91.82 2.43
								 91.12 C2.46 90.65 2.65 90.1 2.59 89.84 C2.47 89.24 1.88 88.63 1.75 88.03 C1.63 87.43 1.79 86.69
								 1.66 86.09 C1.55 85.51 0.58 84.17 0.46 83.59 C0.42 83.4 0.47 82.65 0.42 82.14 C0.35 81.46 0 81.1
								 0 81.1 C-0.02 80.99 0.05 80.88 0.16 80.86 C0.16 80.86 2.64 80.95 3.42 80.8 C4.57 80.59 6.75 79.78
								 7.89 79.49 C9.38 79.12 12.45 78.61 13.9 78.07 C14.56 77.83 16.74 76.8 16.74 76.8 C16.85 76.78 16.95
								 76.85 16.97 76.96 C16.97 76.96 16.92 78.86 17.1 79.49 C17.27 80.1 17.86 81.23 18.01 81.84 C18.18
								 82.52 18.33 84.61 18.33 84.61 C18.33 84.61 18.56 87.04 18.79 87.82 C18.88 88.15 19.53 88.79 19.53
								 88.79 Z" class="st3"/>
				</g>
				<g id="shape6-9" v:mID="6" v:groupContext="shape" transform="translate(2.35065,-3.55271E-13)">
					<title>Hoja.6</title>
					<path d="M55.54 62.38 L55.54 59.45 L0.78 59.45 L0.78 62.38 L0.29 62.38 C0.15 62.38 0.04 62.26 0.04 62.11 L0.04
								 61.29 C0.22 58.59 -0 53.08 0 53.03 C0.01 52.77 0.03 52.06 0.03 51.98 L0.03 51.35 C0.03 51.21 0.15
								 51.09 0.29 51.09 L16.58 51.09 C18.09 51 32.75 51.03 32.8 51.03 C33.97 51.03 42.15 51.09 42.22 51.09
								 C43.5 51.02 49.8 51.09 49.84 51.09 L56.07 51.09 C56.21 51.09 56.33 51.21 56.33 51.35 L56.33 52.24
								 C56.33 52.33 56.27 56.24 56.26 56.59 C56.26 56.63 56.33 60.92 56.33 60.96 C56.33 61.67 56.33 62.11
								 56.33 62.11 C56.33 62.26 56.21 62.38 56.07 62.38 L55.54 62.38 ZM0.83 59.43 L0.83 91.87 C0.83 92.88
								 1.63 93.7 2.62 93.7 L53.8 93.7 C54.79 93.7 55.59 92.88 55.59 91.87 L55.59 59.43 L0.83 59.43 Z"
							class="st4"/>
				</g>
			</g>
		</g>
	</g>
</svg>
