<?xml version="1.0" encoding="UTF-8" standalone="no"?>
<!DOCTYPE svg PUBLIC "-//W3C//DTD SVG 1.1//EN" "http://www.w3.org/Graphics/SVG/1.1/DTD/svg11.dtd">
<!-- Generado por Microsoft Visio, SVG Export camaIndividual.svg Página-1 -->
<svg xmlns="http://www.w3.org/2000/svg" xmlns:xlink="http://www.w3.org/1999/xlink" xmlns:ev="http://www.w3.org/2001/xml-events"
		xmlns:v="http://schemas.microsoft.com/visio/2003/SVGExtensions/" width="0.400022in" height="1.07153in"
		viewBox="0 0 28.8016 77.15" xml:space="preserve" color-interpolation-filters="sRGB" class="st4">
	<v:documentProperties v:langID="3082" v:metric="true" v:viewMarkup="false"/>

	<style type="text/css">
	<![CDATA[
		.st1 {fill:#87776a;stroke:#000000;stroke-width:0.75}
		.st2 {fill:#efefef;stroke:#000000;stroke-width:0.75}
		.st3 {fill:#538135;stroke:#000000;stroke-width:0.375}
		.st4 {fill:none;fill-rule:evenodd;font-size:12px;overflow:visible;stroke-linecap:square;stroke-miterlimit:3}
	]]>
	</style>

	<g v:mID="0" v:index="1" v:groupContext="foregroundPage">
		<title>Página-1</title>
		<v:pageProperties v:drawingScale="0.0393701" v:pageScale="0.0393701" v:drawingUnits="24" v:shadowOffsetX="8.50394"
				v:shadowOffsetY="-8.50394"/>
		<v:layer v:name="Muebles móviles" v:index="0"/>
		<v:layer v:name="Mobiliario" v:index="1"/>
		<g id="group17-1" transform="translate(0.33522,-22.4)" v:mID="17" v:groupContext="group" v:layerMember="0;1">
			<v:custProps>
				<v:cp v:nameU="ShapeClass" v:lbl="Clase de forma" v:invis="true" v:langID="3082" v:val="VT4(Activo)"/>
				<v:cp v:nameU="ShapeType" v:lbl="Tipo de forma" v:invis="true" v:langID="3082" v:val="VT4(Mobiliario)"/>
				<v:cp v:nameU="SubShapeType" v:lbl="Tipo de subforma" v:invis="true" v:langID="3082" v:val="VT4(Cama)"/>
				<v:cp v:nameU="ID" v:lbl="Id." v:type="0" v:invis="false" v:langID="3082"/>
				<v:cp v:nameU="Name" v:lbl="Nombre" v:type="0" v:invis="false" v:langID="3082"/>
				<v:cp v:nameU="Department" v:lbl="Departamento" v:type="0" v:invis="false" v:langID="3082"/>
				<v:cp v:nameU="BelongsTo" v:lbl="Pertenece a" v:type="0" v:invis="true" v:langID="3082"/>
				<v:cp v:nameU="Modify" v:lbl="Modificado" v:type="5" v:invis="false" v:langID="3082"/>
				<v:cp v:nameU="AssetNumber" v:lbl="Número de activo" v:type="0" v:invis="false" v:langID="3082"/>
				<v:cp v:nameU="SerialNumber" v:lbl="Número de serie" v:type="0" v:invis="false" v:langID="3082"/>
				<v:cp v:nameU="ProductDescription" v:lbl="Descripción del producto" v:type="0" v:invis="false" v:langID="3082"/>
				<v:cp v:nameU="PurchaseDate" v:lbl="Fecha de compra" v:type="5" v:invis="false" v:langID="3082"/>
				<v:cp v:nameU="ProductNumber" v:lbl="Número de producto" v:type="0" v:langID="3082"/>
				<v:cp v:nameU="BaseElevation" v:lbl="Elevación de la base" v:type="2" v:langID="3082"/>
			</v:custProps>
			<v:userDefs>
				<v:ud v:nameU="3D_type" v:val="VT0(1):26"/>
				<v:ud v:nameU="3D_model_id" v:val="VT4(bed, single)"/>
				<v:ud v:nameU="visVersion" v:val="VT0(16):26"/>
				<v:ud v:nameU="SolSH" v:val="VT4({5D50005D-537C-4738-9C46-130C74335A6D})"/>
				<v:ud v:nameU="ShapeClass" v:prompt="Activo" v:val="VT0(2):26"/>
			</v:userDefs>
			<title>Cama individual</title>
			<g id="group18-2" transform="translate(0.0397798,0)" v:mID="18" v:groupContext="group" v:layerMember="0;1">
				<title>Hoja.18</title>
				<g id="shape19-3" v:mID="19" v:groupContext="shape" transform="translate(1.08355,0)">
					<title>Hoja.19</title>
					<path d="M0 77.15 L25.09 77.15 L25.09 76.28 L24.69 75.21 L24.69 73.44 L0.4 73.44 L0.4 75.21 L0 76.28 L0 77.15
								 ZM0 23.15 L25.09 23.15 L25.09 24.02 L24.69 25.09 L24.69 29.04 L0.4 29.04 L0.4 25.09 L0 24.02 L0
								 23.15 Z" class="st1"/>
				</g>
				<g id="shape20-5" v:mID="20" v:groupContext="shape" transform="translate(1.48548,-1.93908)">
					<title>Hoja.20</title>
					<path d="M24.29 76.28 L24.29 76.28 L24.29 27.9 C24.29 27.42 23.93 27.03 23.48 27.03 L0.8 27.03 C0.36 27.03 0
								 27.42 0 27.9 L0 76.28 C0 76.76 0.36 77.15 0.8 77.15 L23.48 77.15 C23.93 77.15 24.29 76.76 24.29
								 76.28 Z" class="st2"/>
				</g>
				<g id="shape21-7" v:mID="21" v:groupContext="shape" transform="translate(0,-1.9008)">
					<title>Hoja.21</title>
					<path d="M5.09 38.86 C5.18 37.39 5.75 36.56 5.92 36.08 C6.01 35.83 5.69 35.5 5.69 35.06 C5.69 34.63 5.68 34.28
								 5.68 34.28 C5.68 34.28 5.72 33.6 5.82 33.48 C5.92 33.36 5.74 32.83 5.69 32.62 C5.58 32.07 5.51 30.75
								 5.77 30.36 C5.77 30.36 5.98 30.14 5.57 29.81 C5.57 29.81 4.78 28.64 5.09 28.09 C5.09 28.09 5.24
								 27.76 5.92 28.47 C5.92 28.47 6.71 28.59 6.92 28.67 C7.14 28.75 8.08 28.63 8.55 28.85 C9.03 29.07
								 10.19 28.9 10.35 29.01 C10.51 29.12 14.23 29.2 14.23 29.2 L17.16 29.17 C17.16 29.17 19.76 28.85
								 20.3 28.98 C20.3 28.98 20.65 28.55 21.3 28.54 C21.3 28.54 22.08 28.12 22.31 28.1 C22.53 28.09 22.65
								 28.35 22.65 28.79 C22.65 28.79 22.27 31.16 22.16 31.52 C22.04 31.89 22.21 32.83 22.21 32.83 C22.21
								 32.83 22.48 36.29 22.41 36.82 C22.41 36.82 22.51 37.32 22.58 37.4 C22.66 37.48 22.68 37.78 22.69
								 37.94 C22.72 38.29 23.03 38.26 23.05 39.09 C23.05 39.09 24.23 40.46 23.17 40.35 C22.12 40.24 21.23
								 39.69 20.56 39.53 C19.22 39.22 15.59 39.34 15.07 39.45 C14.54 39.56 7.54 39.7 7.54 39.7 C7.54 39.7
								 5.91 40 5.78 40.1 C5.66 40.21 4.22 40.84 4.35 40.08 C4.48 39.32 5.06 39.23 5.09 38.86 ZM0.15 51.85
								 C1.74 53.39 19.85 61.38 19.85 61.38 L24.04 63.89 C25.44 63.21 28.05 53.49 28.05 53.49 C27.55 46.99
								 22.93 47.78 22.93 47.78 L12.59 45.85 L9.98 45.64 L6.37 44.25 L1.51 42.89 C0.11 42.94 0.15 48.03
								 0.15 48.03 C0.15 48.03 -0.18 51.53 0.15 51.85 ZM1.43 52.76 L1.43 76.28 C1.43 76.76 1.79 77.15 2.24
								 77.15 L25.08 77.15 C25.53 77.15 25.89 76.76 25.89 76.28 L25.89 60.75 C25.27 62.37 24.63 63.69 24.14
								 63.93 L19.93 61.41 C19.93 61.41 6.03 55.33 1.43 52.76 Z" class="st3"/>
				</g>
			</g>
		</g>
	</g>
</svg>
