<?xml version="1.0" encoding="UTF-8" standalone="no"?>
<!DOCTYPE svg PUBLIC "-//W3C//DTD SVG 1.1//EN" "http://www.w3.org/Graphics/SVG/1.1/DTD/svg11.dtd">
<!-- Generado por Microsoft Visio, SVG Export litera.svg Página-1 -->
<svg xmlns="http://www.w3.org/2000/svg" xmlns:xlink="http://www.w3.org/1999/xlink" xmlns:ev="http://www.w3.org/2001/xml-events"
		xmlns:v="http://schemas.microsoft.com/visio/2003/SVGExtensions/" width="0.521675in" height="1.20834in"
		viewBox="0 0 37.5606 87.0004" xml:space="preserve" color-interpolation-filters="sRGB" class="st4">
	<v:documentProperties v:langID="3082" v:metric="true" v:viewMarkup="false"/>

	<style type="text/css">
	<![CDATA[
		.st1 {fill:#87776a;stroke:#000000;stroke-width:0.75}
		.st2 {fill:#efefef;stroke:#000000;stroke-width:0.75}
		.st3 {fill:#538135;stroke:#000000;stroke-width:0.375}
		.st4 {fill:none;fill-rule:evenodd;font-size:12px;overflow:visible;stroke-linecap:square;stroke-miterlimit:3}
	]]>
	</style>

	<g v:mID="0" v:index="1" v:groupContext="foregroundPage">
		<title>Página-1</title>
		<v:pageProperties v:drawingScale="0.0393701" v:pageScale="0.0393701" v:drawingUnits="24" v:shadowOffsetX="8.50394"
				v:shadowOffsetY="-8.50394"/>
		<v:layer v:name="Muebles móviles" v:index="0"/>
		<v:layer v:name="Mobiliario" v:index="1"/>
		<g id="group17-1" transform="translate(0.33522,-22.4)" v:mID="17" v:groupContext="group" v:layerMember="0;1">
			<v:custProps>
				<v:cp v:nameU="ShapeClass" v:lbl="Clase de forma" v:invis="true" v:langID="3082" v:val="VT4(Activo)"/>
				<v:cp v:nameU="ShapeType" v:lbl="Tipo de forma" v:invis="true" v:langID="3082" v:val="VT4(Mobiliario)"/>
				<v:cp v:nameU="SubShapeType" v:lbl="Tipo de subforma" v:invis="true" v:langID="3082" v:val="VT4(Cama)"/>
				<v:cp v:nameU="ID" v:lbl="Id." v:type="0" v:invis="false" v:langID="3082"/>
				<v:cp v:nameU="Name" v:lbl="Nombre" v:type="0" v:invis="false" v:langID="3082"/>
				<v:cp v:nameU="Department" v:lbl="Departamento" v:type="0" v:invis="false" v:langID="3082"/>
				<v:cp v:nameU="BelongsTo" v:lbl="Pertenece a" v:type="0" v:invis="true" v:langID="3082"/>
				<v:cp v:nameU="Modify" v:lbl="Modificado" v:type="5" v:invis="false" v:langID="3082"/>
				<v:cp v:nameU="AssetNumber" v:lbl="Número de activo" v:type="0" v:invis="false" v:langID="3082"/>
				<v:cp v:nameU="SerialNumber" v:lbl="Número de serie" v:type="0" v:invis="false" v:langID="3082"/>
				<v:cp v:nameU="ProductDescription" v:lbl="Descripción del producto" v:type="0" v:invis="false" v:langID="3082"/>
				<v:cp v:nameU="PurchaseDate" v:lbl="Fecha de compra" v:type="5" v:invis="false" v:langID="3082"/>
				<v:cp v:nameU="ProductNumber" v:lbl="Número de producto" v:type="0" v:langID="3082"/>
				<v:cp v:nameU="BaseElevation" v:lbl="Elevación de la base" v:type="2" v:langID="3082"/>
			</v:custProps>
			<v:userDefs>
				<v:ud v:nameU="3D_type" v:val="VT0(1):26"/>
				<v:ud v:nameU="3D_model_id" v:val="VT4(bed, single)"/>
				<v:ud v:nameU="visVersion" v:val="VT0(16):26"/>
				<v:ud v:nameU="SolSH" v:val="VT4({5D50005D-537C-4738-9C46-130C74335A6D})"/>
				<v:ud v:nameU="ShapeClass" v:prompt="Activo" v:val="VT0(2):26"/>
			</v:userDefs>
			<title>Cama individual</title>
			<g id="group18-2" transform="translate(0.0397798,0)" v:mID="18" v:groupContext="group" v:layerMember="0;1">
				<title>Hoja.18</title>
				<g id="shape19-3" v:mID="19" v:groupContext="shape" transform="translate(1.08355,0)">
					<title>Hoja.19</title>
					<path d="M0 87 L25.09 87 L25.09 86.13 L24.69 85.06 L24.69 83.29 L0.4 83.29 L0.4 85.06 L0 86.13 L0 87 ZM0 33 L25.09
								 33 L25.09 33.87 L24.69 34.94 L24.69 38.89 L0.4 38.89 L0.4 34.94 L0 33.87 L0 33 Z" class="st1"/>
				</g>
				<g id="shape20-5" v:mID="20" v:groupContext="shape" transform="translate(1.48548,-1.93908)">
					<title>Hoja.20</title>
					<path d="M24.29 86.13 L24.29 86.13 L24.29 37.75 C24.29 37.27 23.93 36.88 23.48 36.88 L0.8 36.88 C0.36 36.88 0
								 37.27 0 37.75 L0 86.13 C0 86.61 0.36 87 0.8 87 L23.48 87 C23.93 87 24.29 86.61 24.29 86.13 Z"
							class="st2"/>
				</g>
				<g id="shape21-7" v:mID="21" v:groupContext="shape" transform="translate(0,-1.9008)">
					<title>Hoja.21</title>
					<path d="M5.09 48.72 C5.18 47.24 5.75 46.41 5.92 45.93 C6.01 45.68 5.69 45.35 5.69 44.91 C5.69 44.48 5.68 44.13
								 5.68 44.13 C5.68 44.13 5.72 43.45 5.82 43.33 C5.92 43.21 5.74 42.68 5.69 42.47 C5.58 41.92 5.51
								 40.6 5.77 40.21 C5.77 40.21 5.98 39.99 5.57 39.66 C5.57 39.66 4.78 38.5 5.09 37.94 C5.09 37.94 5.24
								 37.61 5.92 38.32 C5.92 38.32 6.71 38.44 6.92 38.52 C7.14 38.6 8.08 38.48 8.55 38.7 C9.03 38.92 10.19
								 38.75 10.35 38.86 C10.51 38.97 14.23 39.05 14.23 39.05 L17.16 39.02 C17.16 39.02 19.76 38.7 20.3
								 38.83 C20.3 38.83 20.65 38.4 21.3 38.39 C21.3 38.39 22.08 37.97 22.31 37.95 C22.53 37.94 22.65 38.2
								 22.65 38.64 C22.65 38.64 22.27 41.01 22.16 41.37 C22.04 41.74 22.21 42.68 22.21 42.68 C22.21 42.68
								 22.48 46.14 22.41 46.67 C22.41 46.67 22.51 47.17 22.58 47.25 C22.66 47.34 22.68 47.63 22.69 47.79
								 C22.72 48.14 23.03 48.11 23.05 48.94 C23.05 48.94 24.23 50.31 23.17 50.2 C22.12 50.09 21.23 49.54
								 20.56 49.38 C19.22 49.07 15.59 49.2 15.07 49.3 C14.54 49.41 7.54 49.55 7.54 49.55 C7.54 49.55 5.91
								 49.85 5.78 49.96 C5.66 50.06 4.22 50.69 4.35 49.93 C4.48 49.17 5.06 49.08 5.09 48.72 ZM0.15 61.7
								 C1.74 63.24 19.85 71.23 19.85 71.23 L24.04 73.74 C25.44 73.06 28.05 63.34 28.05 63.34 C27.55 56.84
								 22.93 57.63 22.93 57.63 L12.59 55.7 L9.98 55.49 L6.37 54.1 L1.51 52.74 C0.11 52.79 0.15 57.88 0.15
								 57.88 C0.15 57.88 -0.18 61.38 0.15 61.7 ZM1.43 62.61 L1.43 86.13 C1.43 86.61 1.79 87 2.24 87 L25.08
								 87 C25.53 87 25.89 86.61 25.89 86.13 L25.89 70.6 C25.27 72.22 24.63 73.54 24.14 73.78 L19.93 71.26
								 C19.93 71.26 6.03 65.18 1.43 62.61 Z" class="st3"/>
				</g>
			</g>
		</g>
		<g id="group55-9" transform="translate(9.09427,-32.2504)" v:mID="55" v:groupContext="group" v:layerMember="0;1">
			<v:custProps>
				<v:cp v:nameU="ShapeClass" v:lbl="Clase de forma" v:invis="true" v:langID="3082" v:val="VT4(Activo)"/>
				<v:cp v:nameU="ShapeType" v:lbl="Tipo de forma" v:invis="true" v:langID="3082" v:val="VT4(Mobiliario)"/>
				<v:cp v:nameU="SubShapeType" v:lbl="Tipo de subforma" v:invis="true" v:langID="3082" v:val="VT4(Cama)"/>
				<v:cp v:nameU="ID" v:lbl="Id." v:type="0" v:invis="false" v:langID="3082"/>
				<v:cp v:nameU="Name" v:lbl="Nombre" v:type="0" v:invis="false" v:langID="3082"/>
				<v:cp v:nameU="Department" v:lbl="Departamento" v:type="0" v:invis="false" v:langID="3082"/>
				<v:cp v:nameU="BelongsTo" v:lbl="Pertenece a" v:type="0" v:invis="true" v:langID="3082"/>
				<v:cp v:nameU="Modify" v:lbl="Modificado" v:type="5" v:invis="false" v:langID="3082"/>
				<v:cp v:nameU="AssetNumber" v:lbl="Número de activo" v:type="0" v:invis="false" v:langID="3082"/>
				<v:cp v:nameU="SerialNumber" v:lbl="Número de serie" v:type="0" v:invis="false" v:langID="3082"/>
				<v:cp v:nameU="ProductDescription" v:lbl="Descripción del producto" v:type="0" v:invis="false" v:langID="3082"/>
				<v:cp v:nameU="PurchaseDate" v:lbl="Fecha de compra" v:type="5" v:invis="false" v:langID="3082"/>
				<v:cp v:nameU="ProductNumber" v:lbl="Número de producto" v:type="0" v:langID="3082"/>
				<v:cp v:nameU="BaseElevation" v:lbl="Elevación de la base" v:type="2" v:langID="3082"/>
			</v:custProps>
			<v:userDefs>
				<v:ud v:nameU="3D_type" v:val="VT0(1):26"/>
				<v:ud v:nameU="3D_model_id" v:val="VT4(bed, single)"/>
				<v:ud v:nameU="visVersion" v:val="VT0(16):26"/>
				<v:ud v:nameU="SolSH" v:val="VT4({5D50005D-537C-4738-9C46-130C74335A6D})"/>
				<v:ud v:nameU="ShapeClass" v:prompt="Activo" v:val="VT0(2):26"/>
			</v:userDefs>
			<title>Cama individual.55</title>
			<g id="group56-10" transform="translate(0.0397798,0)" v:mID="56" v:groupContext="group" v:layerMember="0;1">
				<title>Hoja.56</title>
				<g id="shape57-11" v:mID="57" v:groupContext="shape" transform="translate(1.08355,0)">
					<title>Hoja.57</title>
					<path d="M0 87 L25.09 87 L25.09 86.13 L24.69 85.06 L24.69 83.29 L0.4 83.29 L0.4 85.06 L0 86.13 L0 87 ZM0 33 L25.09
								 33 L25.09 33.87 L24.69 34.94 L24.69 38.89 L0.4 38.89 L0.4 34.94 L0 33.87 L0 33 Z" class="st1"/>
				</g>
				<g id="shape58-13" v:mID="58" v:groupContext="shape" transform="translate(1.48548,-1.93908)">
					<title>Hoja.58</title>
					<path d="M24.29 86.13 L24.29 86.13 L24.29 37.75 C24.29 37.27 23.93 36.88 23.48 36.88 L0.8 36.88 C0.36 36.88 0
								 37.27 0 37.75 L0 86.13 C0 86.61 0.36 87 0.8 87 L23.48 87 C23.93 87 24.29 86.61 24.29 86.13 Z"
							class="st2"/>
				</g>
				<g id="shape59-15" v:mID="59" v:groupContext="shape" transform="translate(0,-1.9008)">
					<title>Hoja.59</title>
					<path d="M5.09 48.72 C5.18 47.24 5.75 46.41 5.92 45.93 C6.01 45.68 5.69 45.35 5.69 44.91 C5.69 44.48 5.68 44.13
								 5.68 44.13 C5.68 44.13 5.72 43.45 5.82 43.33 C5.92 43.21 5.74 42.68 5.69 42.47 C5.58 41.92 5.51
								 40.6 5.77 40.21 C5.77 40.21 5.98 39.99 5.57 39.66 C5.57 39.66 4.78 38.5 5.09 37.94 C5.09 37.94 5.24
								 37.61 5.92 38.32 C5.92 38.32 6.71 38.44 6.92 38.52 C7.14 38.6 8.08 38.48 8.55 38.7 C9.03 38.92 10.19
								 38.75 10.35 38.86 C10.51 38.97 14.23 39.05 14.23 39.05 L17.16 39.02 C17.16 39.02 19.76 38.7 20.3
								 38.83 C20.3 38.83 20.65 38.4 21.3 38.39 C21.3 38.39 22.08 37.97 22.31 37.95 C22.53 37.94 22.65 38.2
								 22.65 38.64 C22.65 38.64 22.27 41.01 22.16 41.37 C22.04 41.74 22.21 42.68 22.21 42.68 C22.21 42.68
								 22.48 46.14 22.41 46.67 C22.41 46.67 22.51 47.17 22.58 47.25 C22.66 47.34 22.68 47.63 22.69 47.79
								 C22.72 48.14 23.03 48.11 23.05 48.94 C23.05 48.94 24.23 50.31 23.17 50.2 C22.12 50.09 21.23 49.54
								 20.56 49.38 C19.22 49.07 15.59 49.2 15.07 49.3 C14.54 49.41 7.54 49.55 7.54 49.55 C7.54 49.55 5.91
								 49.85 5.78 49.96 C5.66 50.06 4.22 50.69 4.35 49.93 C4.48 49.17 5.06 49.08 5.09 48.72 ZM0.15 61.7
								 C1.74 63.24 19.85 71.23 19.85 71.23 L24.04 73.74 C25.44 73.06 28.05 63.34 28.05 63.34 C27.55 56.84
								 22.93 57.63 22.93 57.63 L12.59 55.7 L9.98 55.49 L6.37 54.1 L1.51 52.74 C0.11 52.79 0.15 57.88 0.15
								 57.88 C0.15 57.88 -0.18 61.38 0.15 61.7 ZM1.43 62.61 L1.43 86.13 C1.43 86.61 1.79 87 2.24 87 L25.08
								 87 C25.53 87 25.89 86.61 25.89 86.13 L25.89 70.6 C25.27 72.22 24.63 73.54 24.14 73.78 L19.93 71.26
								 C19.93 71.26 6.03 65.18 1.43 62.61 Z" class="st3"/>
				</g>
			</g>
		</g>
	</g>
</svg>
