<?xml version="1.0" encoding="UTF-8" standalone="no"?>
<!DOCTYPE svg PUBLIC "-//W3C//DTD SVG 1.1//EN" "http://www.w3.org/Graphics/SVG/1.1/DTD/svg11.dtd">
<!-- Generado por Microsoft Visio, SVG Export sofá.svg Página-1 -->
<svg xmlns="http://www.w3.org/2000/svg" xmlns:xlink="http://www.w3.org/1999/xlink" xmlns:ev="http://www.w3.org/2001/xml-events"
		xmlns:v="http://schemas.microsoft.com/visio/2003/SVGExtensions/" width="0.320833in" height="0.880423in"
		viewBox="0 0 23.1 63.3905" xml:space="preserve" color-interpolation-filters="sRGB" class="st5">
	<v:documentProperties v:langID="3082" v:metric="true" v:viewMarkup="false"/>

	<style type="text/css">
	<![CDATA[
		.st1 {fill:#538135;stroke:none;stroke-width:0.75}
		.st2 {fill:#538135;stroke:#000000;stroke-width:0.375}
		.st3 {fill:none;stroke:#000000;stroke-width:0.75}
		.st4 {stroke:#000000;stroke-width:0.375}
		.st5 {fill:none;fill-rule:evenodd;font-size:12px;overflow:visible;stroke-linecap:square;stroke-miterlimit:3}
	]]>
	</style>

	<g v:mID="0" v:index="1" v:groupContext="foregroundPage">
		<title>Página-1</title>
		<v:pageProperties v:drawingScale="0.0393701" v:pageScale="0.0393701" v:drawingUnits="24" v:shadowOffsetX="8.50394"
				v:shadowOffsetY="-8.50394"/>
		<v:layer v:name="Muebles móviles" v:index="0"/>
		<v:layer v:name="Mobiliario" v:index="1"/>
		<g id="group7-1" transform="translate(22.35,85.7905) rotate(180)" v:mID="7" v:groupContext="group" v:layerMember="0;1">
			<v:custProps>
				<v:cp v:nameU="ShapeClass" v:lbl="Clase de forma" v:invis="true" v:langID="3082" v:val="VT4(Activo)"/>
				<v:cp v:nameU="ShapeType" v:lbl="Tipo de forma" v:invis="true" v:langID="3082" v:val="VT4(Mobiliario)"/>
				<v:cp v:nameU="SubShapeType" v:lbl="Tipo de subforma" v:invis="true" v:langID="3082" v:val="VT4(Silla)"/>
				<v:cp v:nameU="ID" v:lbl="Id." v:type="0" v:invis="false" v:langID="3082"/>
				<v:cp v:nameU="Name" v:lbl="Nombre" v:type="0" v:invis="false" v:langID="3082"/>
				<v:cp v:nameU="Department" v:lbl="Departamento" v:type="0" v:invis="false" v:langID="3082"/>
				<v:cp v:nameU="BelongsTo" v:lbl="Pertenece a" v:type="0" v:invis="true" v:langID="3082"/>
				<v:cp v:nameU="Modify" v:lbl="Modificado" v:type="5" v:invis="false" v:langID="3082"/>
				<v:cp v:nameU="AssetNumber" v:lbl="Número de activo" v:type="0" v:invis="false" v:langID="3082"/>
				<v:cp v:nameU="SerialNumber" v:lbl="Número de serie" v:type="0" v:invis="false" v:langID="3082"/>
				<v:cp v:nameU="ProductDescription" v:lbl="Descripción del producto" v:type="0" v:invis="false" v:langID="3082"/>
				<v:cp v:nameU="PurchaseDate" v:lbl="Fecha de compra" v:type="5" v:invis="false" v:langID="3082"/>
				<v:cp v:nameU="ProductNumber" v:lbl="Número de producto" v:type="0" v:langID="3082"/>
				<v:cp v:nameU="BaseElevation" v:lbl="Elevación de la base" v:type="2" v:langID="3082"/>
			</v:custProps>
			<v:userDefs>
				<v:ud v:nameU="3D_type" v:val="VT0(1):26"/>
				<v:ud v:nameU="3D_model_id" v:val="VT4(sofa)"/>
				<v:ud v:nameU="visVersion" v:val="VT0(16):26"/>
				<v:ud v:nameU="SolSH" v:val="VT4({5D50005D-537C-4738-9C46-130C74335A6D})"/>
				<v:ud v:nameU="ShapeClass" v:prompt="Activo" v:val="VT0(2):26"/>
				<v:ud v:nameU="ShapeType" v:prompt="Mobiliario" v:val="VT0(21):26"/>
				<v:ud v:nameU="SubShapeType" v:prompt="Silla" v:val="VT0(12):26"/>
			</v:userDefs>
			<title>Sofá para dos</title>
			<g id="group8-2" v:mID="8" v:groupContext="group" v:layerMember="0;1">
				<title>Hoja.8</title>
				<g id="shape9-3" v:mID="9" v:groupContext="shape" v:layerMember="0;1">
					<title>Hoja.9</title>
					<path d="M21.6 55.18 L21.6 34.09 C21.6 30.51 18.66 28.99 15.08 27.87 C13.21 27.28 9.36 26.15 7.4 25.98 C3.81
								 25.67 1.89 28.68 1.06 32.47 C1.06 32.47 0 37.29 0 44.67 C0 52.7 1.06 56.88 1.06 56.88 C1.59 60.44
								 3.82 63.7 7.4 63.37 C9.35 63.19 13.24 62.3 15.08 61.67 C18.62 60.45 21.6 58.76 21.6 55.18 Z"
							class="st1"/>
				</g>
				<g id="shape10-5" v:mID="10" v:groupContext="shape" v:layerMember="0;1" transform="translate(4.46361,-4.31221)">
					<title>Hoja.10</title>
					<path d="M12.7 36.18 C15.65 37.1 16.17 38.51 16.17 41.46 L16.17 56.48 C16.17 59.43 15.43 61.01 12.52 62.01 C10.99
								 62.54 6.99 63.22 5.38 63.37 C2.43 63.65 1.19 60.8 0.66 57.88 C0.28 55.79 0.03 55 0 49 C-0.03 43.34
								 0.73 40.12 0.73 40.12 C1.41 37 2.43 34.34 5.38 34.6 C7 34.74 11.15 35.69 12.7 36.18 Z" class="st2"/>
				</g>
				<g id="shape11-7" v:mID="11" v:groupContext="shape" v:layerMember="0;1" transform="translate(4.96964,-4.8263)">
					<title>Hoja.11</title>
					<path d="M14.82 49.48 L0 49.33 C0.02 43.8 0.23 42.83 0.68 40.72 C1.32 37.78 2.6 35.44 5.38 35.69 C6.89 35.82
								 10 36.7 11.45 37.15 C14.22 38.02 14.82 39.2 14.82 41.97 L14.82 49.48 ZM0 49.93 L14.82 49.87 L14.82
								 56.49 C14.82 59.26 14.19 61.11 11.45 62.06 C10.02 62.55 6.34 63.23 4.83 63.37 C2.06 63.63 1.08 61.1
								 0.67 58.34 C0.67 58.34 0.02 55.94 0 49.93 Z" class="st1"/>
				</g>
				<g id="shape12-9" v:mID="12" v:groupContext="shape" v:layerMember="0;1" transform="translate(5.60848,-5.49969)">
					<title>Hoja.12</title>
					<path d="M13.4 41.19 a0.620752 0.618038 0 1 1 -1.2415 -7.10543E-15 a0.620752 0.618038 0 1 1 1.2415 7.10543E-15
								 ZM2.87 38.45 a0.620752 0.618038 0 1 1 -1.2415 -7.10543E-15 a0.620752 0.618038 0 1 1 1.2415 7.10543E-15
								 ZM5.52 37.73 a0.620752 0.618038 0 1 1 -1.2415 -7.10543E-15 a0.620752 0.618038 0 1 1 1.2415 7.10543E-15
								 ZM8.57 38.09 a0.620752 0.618038 0 1 1 -1.2415 -7.10543E-15 a0.620752 0.618038 0 1 1 1.2415 7.10543E-15
								 ZM11.32 38.99 a0.620752 0.618038 0 1 1 -1.2415 -7.10543E-15 a0.620752 0.618038 0 1 1 1.2415 7.10543E-15
								 ZM12.8 59.57 a0.620752 0.618038 0 1 1 -1.2415 -7.10543E-15 a0.620752 0.618038 0 1 1 1.2415 7.10543E-15
								 ZM7.62 41.19 a0.620752 0.618038 0 1 1 -1.2415 -7.10543E-15 a0.620752 0.618038 0 1 1 1.2415 7.10543E-15
								 ZM4.09 40.92 a0.620752 0.618038 0 1 1 -1.2415 -7.10543E-15 a0.620752 0.618038 0 1 1 1.2415 7.10543E-15
								 ZM7.37 59.75 a0.620752 0.618038 0 1 1 -1.2415 -7.10543E-15 a0.620752 0.618038 0 1 1 1.2415 7.10543E-15
								 ZM3.19 59.21 a0.620752 0.618038 0 1 1 -1.2415 -7.10543E-15 a0.620752 0.618038 0 1 1 1.2415 7.10543E-15
								 ZM11.9 46.11 a0.620752 0.618038 0 1 1 -1.2415 -7.10543E-15 a0.620752 0.618038 0 1 1 1.2415 7.10543E-15
								 ZM7.8 46.04 a0.620752 0.618038 0 1 1 -1.2415 -7.10543E-15 a0.620752 0.618038 0 1 1 1.2415 7.10543E-15
								 ZM3.19 46.11 a0.620752 0.618038 0 1 1 -1.2415 -7.10543E-15 a0.620752 0.618038 0 1 1 1.2415 7.10543E-15
								 ZM11.9 54.37 a0.620752 0.618038 0 1 1 -1.2415 -7.10543E-15 a0.620752 0.618038 0 1 1 1.2415 7.10543E-15
								 ZM7.55 54.73 a0.620752 0.618038 0 1 1 -1.2415 -7.10543E-15 a0.620752 0.618038 0 1 1 1.2415 7.10543E-15
								 ZM3.19 54.37 a0.620752 0.618038 0 1 1 -1.2415 -7.10543E-15 a0.620752 0.618038 0 1 1 1.2415 7.10543E-15
								 ZM2.87 62.05 a0.620752 0.618038 0 1 1 -1.2415 -7.10543E-15 a0.620752 0.618038 0 1 1 1.2415 7.10543E-15
								 ZM5.52 62.77 a0.620752 0.618038 0 1 1 -1.2415 -7.10543E-15 a0.620752 0.618038 0 1 1 1.2415 7.10543E-15
								 ZM8.57 62.41 a0.620752 0.618038 0 1 1 -1.2415 -7.10543E-15 a0.620752 0.618038 0 1 1 1.2415 7.10543E-15
								 ZM11.32 61.51 a0.620752 0.618038 0 1 1 -1.2415 -7.10543E-15 a0.620752 0.618038 0 1 1 1.2415 7.10543E-15
								 ZM1.42 43.37 a0.620752 0.618038 0 1 1 -1.2415 -7.10543E-15 a0.620752 0.618038 0 1 1 1.2415 7.10543E-15
								 ZM5.34 43.55 a0.620752 0.618038 0 1 1 -1.2415 -7.10543E-15 a0.620752 0.618038 0 1 1 1.2415 7.10543E-15
								 ZM10.1 43.48 a0.620752 0.618038 0 1 1 -1.2415 -7.10543E-15 a0.620752 0.618038 0 1 1 1.2415 7.10543E-15
								 ZM13.67 43.79 a0.620752 0.618038 0 1 1 -1.2415 -7.10543E-15 a0.620752 0.618038 0 1 1 1.2415 7.10543E-15
								 ZM1.42 56.94 a0.620752 0.618038 0 1 1 -1.2415 -7.10543E-15 a0.620752 0.618038 0 1 1 1.2415 7.10543E-15
								 ZM5.34 57.12 a0.620752 0.618038 0 1 1 -1.2415 -7.10543E-15 a0.620752 0.618038 0 1 1 1.2415 7.10543E-15
								 ZM9.84 57.48 a0.620752 0.618038 0 1 1 -1.2415 -7.10543E-15 a0.620752 0.618038 0 1 1 1.2415 7.10543E-15
								 ZM13.67 56.94 a0.620752 0.618038 0 1 1 -1.2415 -7.10543E-15 a0.620752 0.618038 0 1 1 1.2415 7.10543E-15
								 ZM1.24 48.8 a0.620752 0.618038 0 1 1 -1.2415 -7.10543E-15 a0.620752 0.618038 0 1 1 1.2415 7.10543E-15
								 ZM4.97 48.8 a0.620752 0.618038 0 1 1 -1.2415 -7.10543E-15 a0.620752 0.618038 0 1 1 1.2415 7.10543E-15
								 ZM9.29 48.8 a0.620752 0.618038 0 1 1 -1.2415 -7.10543E-15 a0.620752 0.618038 0 1 1 1.2415 7.10543E-15
								 ZM13.67 48.8 a0.620752 0.618038 0 1 1 -1.2415 -7.10543E-15 a0.620752 0.618038 0 1 1 1.2415 7.10543E-15
								 ZM1.24 51.74 a0.620752 0.618038 0 1 1 -1.2415 -7.10543E-15 a0.620752 0.618038 0 1 1 1.2415 7.10543E-15
								 ZM4.97 51.74 a0.620752 0.618038 0 1 1 -1.2415 -7.10543E-15 a0.620752 0.618038 0 1 1 1.2415 7.10543E-15
								 ZM9.29 51.74 a0.620752 0.618038 0 1 1 -1.2415 -7.10543E-15 a0.620752 0.618038 0 1 1 1.2415 7.10543E-15
								 ZM13.67 51.74 a0.620752 0.618038 0 1 1 -1.2415 -7.10543E-15 a0.620752 0.618038 0 1 1 1.2415 7.10543E-15
								 Z" class="st1"/>
				</g>
				<g id="shape13-11" v:mID="13" v:groupContext="shape" v:layerMember="0;1" transform="translate(5.80466,-5.695)">
					<title>Hoja.13</title>
					<path d="M13.01 41.39 a0.424573 0.422716 0 1 1 -0.849145 0 a0.424573 0.422716 0 1 1 0.849145 0 ZM2.48 38.64 a0.424573
								 0.422716 0 1 1 -0.849145 0 a0.424573 0.422716 0 1 1 0.849145 0 ZM5.12 37.92 a0.424573 0.422716 0
								 1 1 -0.849145 0 a0.424573 0.422716 0 1 1 0.849145 0 ZM8.18 38.28 a0.424573 0.422716 0 1 1 -0.849145
								 0 a0.424573 0.422716 0 1 1 0.849145 0 ZM10.92 39.18 a0.424573 0.422716 0 1 1 -0.849145 0 a0.424573
								 0.422716 0 1 1 0.849145 0 ZM12.41 59.77 a0.424573 0.422716 0 1 1 -0.849145 0 a0.424573 0.422716
								 0 1 1 0.849145 0 ZM7.22 41.39 a0.424573 0.422716 0 1 1 -0.849145 0 a0.424573 0.422716 0 1 1 0.849145
								 0 ZM3.7 41.12 a0.424573 0.422716 0 1 1 -0.849145 0 a0.424573 0.422716 0 1 1 0.849145 0 ZM6.98 59.95
								 a0.424573 0.422716 0 1 1 -0.849145 0 a0.424573 0.422716 0 1 1 0.849145 0 ZM2.79 59.41 a0.424573
								 0.422716 0 1 1 -0.849145 0 a0.424573 0.422716 0 1 1 0.849145 0 ZM11.5 46.3 a0.424573 0.422716 0
								 1 1 -0.849145 0 a0.424573 0.422716 0 1 1 0.849145 0 ZM7.41 46.24 a0.424573 0.422716 0 1 1 -0.849145
								 0 a0.424573 0.422716 0 1 1 0.849145 0 ZM2.79 46.3 a0.424573 0.422716 0 1 1 -0.849145 0 a0.424573
								 0.422716 0 1 1 0.849145 0 ZM11.5 54.57 a0.424573 0.422716 0 1 1 -0.849145 0 a0.424573 0.422716 0
								 1 1 0.849145 0 ZM7.16 54.93 a0.424573 0.422716 0 1 1 -0.849145 0 a0.424573 0.422716 0 1 1 0.849145
								 0 ZM2.79 54.57 a0.424573 0.422716 0 1 1 -0.849145 0 a0.424573 0.422716 0 1 1 0.849145 0 ZM2.48 62.25
								 a0.424573 0.422716 0 1 1 -0.849145 0 a0.424573 0.422716 0 1 1 0.849145 0 ZM5.12 62.97 a0.424573
								 0.422716 0 1 1 -0.849145 0 a0.424573 0.422716 0 1 1 0.849145 0 ZM8.18 62.61 a0.424573 0.422716 0
								 1 1 -0.849145 0 a0.424573 0.422716 0 1 1 0.849145 0 ZM10.92 61.71 a0.424573 0.422716 0 1 1 -0.849145
								 0 a0.424573 0.422716 0 1 1 0.849145 0 ZM1.03 43.56 a0.424573 0.422716 0 1 1 -0.849145 0 a0.424573
								 0.422716 0 1 1 0.849145 0 ZM4.94 43.74 a0.424573 0.422716 0 1 1 -0.849145 0 a0.424573 0.422716 0
								 1 1 0.849145 0 ZM9.71 43.68 a0.424573 0.422716 0 1 1 -0.849145 0 a0.424573 0.422716 0 1 1 0.849145
								 0 ZM13.28 43.98 a0.424573 0.422716 0 1 1 -0.849145 0 a0.424573 0.422716 0 1 1 0.849145 0 ZM1.03
								 57.14 a0.424573 0.422716 0 1 1 -0.849145 0 a0.424573 0.422716 0 1 1 0.849145 0 ZM4.94 57.32 a0.424573
								 0.422716 0 1 1 -0.849145 0 a0.424573 0.422716 0 1 1 0.849145 0 ZM9.45 57.68 a0.424573 0.422716 0
								 1 1 -0.849145 0 a0.424573 0.422716 0 1 1 0.849145 0 ZM13.28 57.14 a0.424573 0.422716 0 1 1 -0.849145
								 0 a0.424573 0.422716 0 1 1 0.849145 0 ZM0.85 48.99 a0.424573 0.422716 0 1 1 -0.849145 0 a0.424573
								 0.422716 0 1 1 0.849145 0 ZM4.58 48.99 a0.424573 0.422716 0 1 1 -0.849145 0 a0.424573 0.422716 0
								 1 1 0.849145 0 ZM8.9 48.99 a0.424573 0.422716 0 1 1 -0.849145 0 a0.424573 0.422716 0 1 1 0.849145
								 0 ZM13.28 48.99 a0.424573 0.422716 0 1 1 -0.849145 0 a0.424573 0.422716 0 1 1 0.849145 0 ZM0.85
								 51.93 a0.424573 0.422716 0 1 1 -0.849145 0 a0.424573 0.422716 0 1 1 0.849145 0 ZM4.58 51.93 a0.424573
								 0.422716 0 1 1 -0.849145 0 a0.424573 0.422716 0 1 1 0.849145 0 ZM8.9 51.93 a0.424573 0.422716 0
								 1 1 -0.849145 0 a0.424573 0.422716 0 1 1 0.849145 0 ZM13.28 51.93 a0.424573 0.422716 0 1 1 -0.849145
								 0 a0.424573 0.422716 0 1 1 0.849145 0 Z" class="st1"/>
				</g>
				<g id="shape14-13" v:mID="14" v:groupContext="shape" v:layerMember="0;1" transform="translate(5.96357,-5.85321)">
					<title>Hoja.14</title>
					<path d="M12.69 41.54 a0.265675 0.264513 0 1 1 -0.531349 0 a0.265675 0.264513 0 1 1 0.531349 0 ZM2.16 38.8 a0.265675
								 0.264513 0 1 1 -0.531349 0 a0.265675 0.264513 0 1 1 0.531349 0 ZM4.81 38.08 a0.265675 0.264513 0
								 1 1 -0.531349 0 a0.265675 0.264513 0 1 1 0.531349 0 ZM7.86 38.44 a0.265675 0.264513 0 1 1 -0.531349
								 0 a0.265675 0.264513 0 1 1 0.531349 0 ZM10.61 39.34 a0.265675 0.264513 0 1 1 -0.531349 0 a0.265675
								 0.264513 0 1 1 0.531349 0 ZM12.09 59.93 a0.265675 0.264513 0 1 1 -0.531349 0 a0.265675 0.264513
								 0 1 1 0.531349 0 ZM6.91 41.54 a0.265675 0.264513 0 1 1 -0.531349 0 a0.265675 0.264513 0 1 1 0.531349
								 0 ZM3.38 41.28 a0.265675 0.264513 0 1 1 -0.531349 0 a0.265675 0.264513 0 1 1 0.531349 0 ZM6.66 60.11
								 a0.265675 0.264513 0 1 1 -0.531349 0 a0.265675 0.264513 0 1 1 0.531349 0 ZM2.48 59.57 a0.265675
								 0.264513 0 1 1 -0.531349 0 a0.265675 0.264513 0 1 1 0.531349 0 ZM11.19 46.46 a0.265675 0.264513
								 0 1 1 -0.531349 0 a0.265675 0.264513 0 1 1 0.531349 0 ZM7.09 46.4 a0.265675 0.264513 0 1 1 -0.531349
								 0 a0.265675 0.264513 0 1 1 0.531349 0 ZM2.48 46.46 a0.265675 0.264513 0 1 1 -0.531349 0 a0.265675
								 0.264513 0 1 1 0.531349 0 ZM11.19 54.72 a0.265675 0.264513 0 1 1 -0.531349 0 a0.265675 0.264513
								 0 1 1 0.531349 0 ZM6.84 55.09 a0.265675 0.264513 0 1 1 -0.531349 0 a0.265675 0.264513 0 1 1 0.531349
								 0 ZM2.48 54.72 a0.265675 0.264513 0 1 1 -0.531349 0 a0.265675 0.264513 0 1 1 0.531349 0 ZM2.16 62.41
								 a0.265675 0.264513 0 1 1 -0.531349 0 a0.265675 0.264513 0 1 1 0.531349 0 ZM4.81 63.13 a0.265675
								 0.264513 0 1 1 -0.531349 0 a0.265675 0.264513 0 1 1 0.531349 0 ZM7.86 62.77 a0.265675 0.264513 0
								 1 1 -0.531349 0 a0.265675 0.264513 0 1 1 0.531349 0 ZM10.61 61.86 a0.265675 0.264513 0 1 1 -0.531349
								 0 a0.265675 0.264513 0 1 1 0.531349 0 ZM0.71 43.72 a0.265675 0.264513 0 1 1 -0.531349 0 a0.265675
								 0.264513 0 1 1 0.531349 0 ZM4.63 43.9 a0.265675 0.264513 0 1 1 -0.531349 0 a0.265675 0.264513 0
								 1 1 0.531349 0 ZM9.39 43.84 a0.265675 0.264513 0 1 1 -0.531349 0 a0.265675 0.264513 0 1 1 0.531349
								 0 ZM12.96 44.14 a0.265675 0.264513 0 1 1 -0.531349 0 a0.265675 0.264513 0 1 1 0.531349 0 ZM0.71
								 57.29 a0.265675 0.264513 0 1 1 -0.531349 0 a0.265675 0.264513 0 1 1 0.531349 0 ZM4.63 57.47 a0.265675
								 0.264513 0 1 1 -0.531349 0 a0.265675 0.264513 0 1 1 0.531349 0 ZM9.13 57.84 a0.265675 0.264513 0
								 1 1 -0.531349 0 a0.265675 0.264513 0 1 1 0.531349 0 ZM12.96 57.29 a0.265675 0.264513 0 1 1 -0.531349
								 0 a0.265675 0.264513 0 1 1 0.531349 0 ZM0.53 49.15 a0.265675 0.264513 0 1 1 -0.531349 0 a0.265675
								 0.264513 0 1 1 0.531349 0 ZM4.26 49.15 a0.265675 0.264513 0 1 1 -0.531349 0 a0.265675 0.264513 0
								 1 1 0.531349 0 ZM8.58 49.15 a0.265675 0.264513 0 1 1 -0.531349 0 a0.265675 0.264513 0 1 1 0.531349
								 0 ZM12.96 49.15 a0.265675 0.264513 0 1 1 -0.531349 0 a0.265675 0.264513 0 1 1 0.531349 0 ZM0.53
								 52.09 a0.265675 0.264513 0 1 1 -0.531349 0 a0.265675 0.264513 0 1 1 0.531349 0 ZM4.26 52.09 a0.265675
								 0.264513 0 1 1 -0.531349 0 a0.265675 0.264513 0 1 1 0.531349 0 ZM8.58 52.09 a0.265675 0.264513 0
								 1 1 -0.531349 0 a0.265675 0.264513 0 1 1 0.531349 0 ZM12.96 52.09 a0.265675 0.264513 0 1 1 -0.531349
								 0 a0.265675 0.264513 0 1 1 0.531349 0 Z" class="st1"/>
				</g>
				<g id="shape15-15" v:mID="15" v:groupContext="shape" v:layerMember="0;1" transform="translate(1.17671,-1.44183)">
					<title>Hoja.15</title>
					<path d="M8.67 31.73 C5.68 31.47 4.68 33.98 3.99 37.14 C3.99 37.14 3.26 39.96 3.26 46.12 C3.26 52.81 3.99 55.09
								 3.99 55.09 C4.44 58.06 5.68 60.78 8.67 60.5 C10.3 60.35 14.45 59.62 15.99 59.08 C18.94 58.07 20.42
								 56.84 20.42 56.84 C20.42 60.42 18.8 60.45 15.27 61.67 C13.42 62.3 8.44 63.19 6.49 63.37 C2.91 63.7
								 1.7 60.38 0.88 56.88 C0.27 54.25 0 52.92 0 46.12 C0 39.01 0.16 37.98 0.79 35.35 C1.7 31.58 2.91
								 28.55 6.49 28.87 C8.45 29.04 13.39 30.17 15.27 30.76 C18.84 31.88 20.42 33.2 20.42 36.78 C20.42
								 36.78 18.97 34.24 15.99 33.31 C14.42 32.82 10.3 31.88 8.67 31.73 Z" class="st1"/>
				</g>
				<g id="shape16-17" v:mID="16" v:groupContext="shape" v:layerMember="0;1"
						transform="translate(1.07914E-13,-0.0144149)">
					<title>Hoja.16</title>
					<path d="M21.6 55.18 L21.6 34.09 C21.6 30.51 18.66 28.99 15.08 27.87 C13.21 27.28 9.36 26.15 7.4 25.98 C3.81
								 25.67 1.89 28.68 1.06 32.47 C1.06 32.47 0 37.29 0 44.67 C0 52.7 1.06 56.88 1.06 56.88 C1.59 60.44
								 3.82 63.7 7.4 63.37 C9.35 63.19 13.24 62.3 15.08 61.67 C18.62 60.45 21.6 58.76 21.6 55.18 Z"
							class="st3"/>
				</g>
			</g>
			<g id="group17-19" transform="translate(2.69667,-18.8625)" v:mID="17" v:groupContext="group" v:layerMember="0;1">
				<title>Hoja.17</title>
				<g id="shape18-20" v:mID="18" v:groupContext="shape" v:layerMember="0;1">
					<title>Hoja.18</title>
					<path d="M5.77 51.14 L3.51 49.55 L1.25 49.43 C0.93 49.42 0.65 49.67 0.64 49.99 L0 62.39 C-0.02 62.71 0.23 62.99
								 0.55 63 L2.81 63.12 L5.15 63.39 C5.56 63.42 5.74 63.16 5.76 62.84 L6.33 51.93 C6.35 51.61 6.19 51.41
								 5.77 51.14 Z" class="st2"/>
				</g>
				<g id="shape19-22" v:mID="19" v:groupContext="shape" v:layerMember="0;1" transform="translate(0.57518,-0.548766)">
					<title>Hoja.19</title>
					<path d="M2.81 63.09 L3.45 50.85 L5.26 52.25 L4.67 63.39 L2.81 63.09 ZM0.61 51.07 C0.62 50.75 0.9 50.5 1.22 50.52
								 L2.86 50.6 L2.2 63.13 L0.58 63.04 C0.26 63.03 -0.02 62.75 0 62.43 L0.61 51.07 Z" class="st1"/>
				</g>
				<g id="shape20-24" v:mID="20" v:groupContext="shape" v:layerMember="0;1" transform="translate(2.81172,-0.272354)">
					<title>Hoja.20</title>
					<path d="M0 63.39 L0.7 49.82" class="st4"/>
				</g>
			</g>
			<g id="group21-27" transform="translate(2.69667,108.19) scale(1,-1)" v:mID="21" v:groupContext="group"
					v:layerMember="0;1">
				<title>Hoja.21</title>
				<g id="shape22-28" v:mID="22" v:groupContext="shape" v:layerMember="0;1">
					<title>Hoja.22</title>
					<path d="M5.77 51.14 L3.51 49.55 L1.25 49.43 C0.93 49.42 0.65 49.67 0.64 49.99 L0 62.39 C-0.02 62.71 0.23 62.99
								 0.55 63 L2.81 63.12 L5.15 63.39 C5.56 63.42 5.74 63.16 5.76 62.84 L6.33 51.93 C6.35 51.61 6.19 51.41
								 5.77 51.14 Z" class="st2"/>
				</g>
				<g id="shape23-30" v:mID="23" v:groupContext="shape" v:layerMember="0;1" transform="translate(0.57518,-0.548766)">
					<title>Hoja.23</title>
					<path d="M2.81 63.09 L3.45 50.85 L5.26 52.25 L4.67 63.39 L2.81 63.09 ZM0.61 51.07 C0.62 50.75 0.9 50.5 1.22 50.52
								 L2.86 50.6 L2.2 63.13 L0.58 63.04 C0.26 63.03 -0.02 62.75 0 62.43 L0.61 51.07 Z" class="st1"/>
				</g>
				<g id="shape24-32" v:mID="24" v:groupContext="shape" v:layerMember="0;1" transform="translate(2.81172,-0.272354)">
					<title>Hoja.24</title>
					<path d="M0 63.39 L0.7 49.82" class="st4"/>
				</g>
			</g>
		</g>
	</g>
</svg>
