<?xml version="1.0" encoding="utf-8"?>
<!-- Svg Vector Icons : http://www.onlinewebfonts.com/icon -->
<!DOCTYPE svg PUBLIC "-//W3C//DTD SVG 1.1//EN" "http://www.w3.org/Graphics/SVG/1.1/DTD/svg11.dtd">
<svg version="1.1" xmlns="http://www.w3.org/2000/svg" xmlns:xlink="http://www.w3.org/1999/xlink" x="0px" y="0px" viewBox="0 0 1000 1000" enable-background="new 0 0 1000 1000" xml:space="preserve">
<metadata> Svg Vector Icons : http://www.onlinewebfonts.com/icon </metadata>
<g><g transform="translate(0.000000,511.000000) scale(0.100000,-0.100000)"><path d="M8253.9,4986.5c-121.3-39.8-228.8-133.3-294.5-256.7l-53.7-101.5l-6-630.7l-6-630.7l-149.2,109.4c-226.8,169.1-447.6,300.4-734.1,437.7c-656.6,318.3-1241.5,451.6-1979.6,451.6c-549.1,2-929.1-59.7-1442.4-226.8c-1161.9-382-2128.8-1225.6-2676-2333.8C600.1,1170.5,450.9,533.8,448.9-186.4c-2-768,151.2-1420.6,489.4-2087.1c998.8-1967.7,3239-2944.6,5355.9-2337.7c764,218.8,1438.5,626.7,2009.5,1213.6c622.7,642.6,1010.7,1362.9,1205.7,2246.2c59.7,272.6,55.7,407.9-13.9,539.2c-171.1,316.4-590.9,370.1-823.7,105.4c-83.6-97.5-109.4-159.2-159.2-403.9c-254.7-1253.4-1169.9-2286-2381.5-2685.9c-714.2-236.7-1508.1-232.8-2230.3,8C2617.5-3158.8,1696.3-2054.6,1497.4-705.7c-45.8,306.4-29.8,913.2,31.8,1195.7c99.5,467.5,278.5,889.3,553.1,1303.2c200.9,304.4,616.8,724.2,923.2,931.1c694.4,469.5,1468.3,678.4,2284,618.7c596.9-45.8,1183.8-242.7,1671.2-563l169.1-111.4h-567c-328.3,0-598.9-8-640.6-19.9c-200.9-55.7-354.1-266.6-354.1-485.5c0-210.9,109.4-382,298.4-467.5c87.5-39.8,123.3-41.8,1382.8-41.8c1464.3,0,1376.8-8,1535.9,165.1c147.2,159.2,145.2,141.3,145.2,1488.2c0,781.9-8,1223.6-21.9,1291.2C8844.9,4893,8534.5,5078,8253.9,4986.5z"/></g></g>
</svg>