<svg id="Capa_1" enable-background="new 0 0 512 512" height="512" viewBox="0 0 512 512" width="512" xmlns="http://www.w3.org/2000/svg"><g><path d="m129.68 429.612c-13.947 0-25.293 11.346-25.293 25.293 0 13.948 11.346 25.294 25.293 25.294 13.948 0 25.294-11.346 25.294-25.294 0-13.946-11.346-25.293-25.294-25.293zm0 35.568c-5.664 0-10.273-4.609-10.273-10.274 0-5.664 4.609-10.273 10.273-10.273 5.665 0 10.274 4.609 10.274 10.273 0 5.665-4.609 10.274-10.274 10.274z"/><path d="m434.286 155.029h-21.502c.588-3.462 1.062-6.964 1.421-10.501 11.274-3.254 19.546-13.659 19.546-25.966 0-14.903-12.125-27.028-27.028-27.028h-301.446c-14.903 0-27.028 12.125-27.028 27.028 0 12.308 8.272 22.713 19.546 25.967.36 3.537.834 7.038 1.421 10.5h-21.502c-12.187 0-22.101 9.914-22.101 22.1s9.914 22.1 22.101 22.1h35.969c11.311 22.585 27.832 42.078 47.937 56.941l-14.3 52.557c-2.282 9.647 11.525 13.473 14.495 3.943l12.988-47.736c5.061 3.018 10.299 5.765 15.696 8.216l-35.535 130.609c-5.118-2.54-10.663-4.343-16.504-5.248l15.47-56.858c1.088-4.003-1.273-8.129-5.276-9.219-3.997-1.081-8.129 1.273-9.219 5.276l-16.469 60.533c-28.315 3.335-50.357 27.467-50.357 56.663 0 31.47 25.602 57.072 57.071 57.072 31.47 0 57.072-25.602 57.072-57.072 0-16.69-7.203-31.728-18.662-42.174l7.181-26.395h161.458l10.81 39.733c2.974 9.537 16.778 5.696 14.495-3.943l-40.532-148.977c5.397-2.451 10.635-5.198 15.696-8.216l60.154 221.096c2.586 11.179-13.273 15.489-16.696 4.542l-10.733-39.45c-1.089-4.004-5.22-6.36-9.219-5.276-4.003 1.089-6.364 5.216-5.276 9.219l10.733 39.45c3.227 12.431 16.712 20.157 29.057 16.627 12.594-3.427 20.053-16.461 16.627-29.055l-61.465-225.917c20.105-14.863 36.626-34.357 47.938-56.941h35.968c12.187 0 22.101-9.914 22.101-22.1 0-12.187-9.914-22.1-22.101-22.1zm-262.555 299.877c0 23.187-18.865 42.052-42.052 42.052s-42.051-18.865-42.051-42.052 18.864-42.051 42.051-42.051 42.052 18.864 42.052 42.051zm-94.017-270.698c-3.904 0-7.08-3.175-7.08-7.079s3.176-7.08 7.08-7.08h24.814c1.311 4.816 2.842 9.539 4.583 14.159zm254.929 187.108h-153.285l25.188-92.58c16.177 5.556 33.492 8.575 51.454 8.575s35.278-3.019 51.454-8.575zm-76.643-99.026c-73.07 0-134.374-55.031-142.976-126.701h46.56c4.148 0 7.51-3.362 7.51-7.51s-3.362-7.51-7.51-7.51h-54.307c-6.621 0-12.008-5.386-12.008-12.008 0-6.621 5.386-12.008 12.008-12.008h301.446c6.621 0 12.008 5.386 12.008 12.008 0 6.621-5.386 12.008-12.008 12.008h-.017-.003-217.078c-4.148 0-7.51 3.362-7.51 7.51s3.362 7.51 7.51 7.51h209.352c-8.602 71.671-69.907 126.701-142.977 126.701zm178.286-88.082h-29.396c1.741-4.62 3.272-9.343 4.583-14.159h24.814c3.904 0 7.08 3.176 7.08 7.08-.001 3.904-3.177 7.079-7.081 7.079z"/><path d="m249.803 74.547c3.094 2.741 7.881 2.499 10.642-.62 2.751-3.109 2.493-7.831-.616-10.583-.363-.337-8.892-8.443-8.892-25.121s8.529-24.785 8.892-25.121c3.109-2.751 3.367-7.473.616-10.583-2.761-3.119-7.548-3.361-10.642-.62-.568.502-13.9 12.572-13.9 36.323 0 23.752 13.332 35.822 13.9 36.325z"/><path d="m190.912 74.234c.145.138.264.248.337.312 7.573 6.028 16.84-4.287 10.051-11.164l.008-.008c-.215-.204-5.267-5.135-5.267-15.271 0-9.994 4.92-14.597 5.13-14.788 6.938-6.707-2.043-17.245-9.764-11.419l-.005-.006c-1.064.892-10.395 9.203-10.395 26.214 0 15.277 7.5 23.767 9.714 25.943.062.064.126.125.191.187z"/><path d="m305.02 74.234c.145.138.264.248.337.312 1.311 1.112 3.008 1.783 4.861 1.783 4.151 0 7.517-3.366 7.517-7.517 0-2.137-.895-4.061-2.327-5.429l.008-.008c-.214-.204-5.267-5.135-5.267-15.271 0-9.994 4.92-14.597 5.129-14.788l-.007-.008c1.51-1.375 2.463-3.35 2.463-5.553 0-4.152-3.365-7.517-7.517-7.517-1.781 0-3.42.617-4.708 1.652-1.064.892-10.395 9.203-10.395 26.214 0 15.277 7.5 23.767 9.714 25.943.063.064.127.125.192.187z"/></g></svg>