<?xml version="1.0" encoding="iso-8859-1"?>
<!-- Generator: Adobe Illustrator 19.0.0, SVG Export Plug-In . SVG Version: 6.00 Build 0)  -->
<svg version="1.1" id="Capa_1" xmlns="http://www.w3.org/2000/svg" xmlns:xlink="http://www.w3.org/1999/xlink" x="0px" y="0px"
	 viewBox="0 0 512 512" style="enable-background:new 0 0 512 512;" xml:space="preserve">
<path style="fill:#FF7058;" d="M311.467,202.667H66.133l0,0C96,172.8,113.067,132.267,113.067,89.6V75.733
	C113.067,34.133,147.2,0,188.8,0l0,0c41.6,0,75.733,34.133,75.733,75.733V89.6C264.533,132.267,281.6,172.8,311.467,202.667
	L311.467,202.667z"/>
<path style="fill:#40596B;" d="M88.533,186.667c66.133-19.2,136.533-19.2,202.667,0c23.467,6.4,39.467,28.8,39.467,52.267V352
	h-281.6V238.933C49.067,215.467,65.067,193.067,88.533,186.667z"/>
<path style="fill:#F8B64C;" d="M149.333,115.2v57.6c0,20.267,39.467,37.333,39.467,37.333s39.467-17.067,39.467-37.333v-57.6
	L149.333,115.2L149.333,115.2z"/>
<path style="fill:#FFD15C;" d="M235.733,74.667c-20.267,0-35.2-6.4-46.933-16c-10.667,16-29.867,27.733-55.467,28.8
	c-1.067,6.4-2.133,12.8-2.133,20.267c0,39.467,25.6,70.4,58.667,70.4c32,0,58.667-32,58.667-70.4
	c0-11.733-2.133-23.467-7.467-33.067C238.933,74.667,237.867,74.667,235.733,74.667z"/>
<g>
	<polygon style="fill:#FFFFFF;" points="228.267,170.667 236.8,176 217.6,227.2 188.8,209.067 	"/>
	<polygon style="fill:#FFFFFF;" points="149.333,170.667 141.867,176 161.067,227.2 188.8,209.067 	"/>
</g>
<path style="fill:#FFD15C;" d="M481.067,332.8H30.933C13.867,332.8,0,346.667,0,362.667C0,379.733,13.867,393.6,30.933,393.6
	h450.133c17.067,0,30.933-13.867,30.933-30.933C512,346.667,498.133,332.8,481.067,332.8z"/>
<rect x="37.333" y="393.6" style="fill:#F8B64C;" width="437.333" height="118.4"/>
<rect x="361.6" y="285.867" style="fill:#ACB3BA;" width="99.2" height="24.533"/>
<path style="fill:#F2F2F2;" d="M453.333,305.067H371.2c-14.933,0-26.667,11.733-26.667,26.667l0,0H480l0,0
	C480,317.867,468.267,305.067,453.333,305.067z"/>
<circle style="fill:#ACB3BA;" cx="411.733" cy="237.867" r="11.733"/>
<path style="fill:#F2F2F2;" d="M411.733,237.867c-33.067,0-59.733,26.667-59.733,59.733h120.533
	C471.467,264.533,444.8,237.867,411.733,237.867z"/>
<g>
</g>
<g>
</g>
<g>
</g>
<g>
</g>
<g>
</g>
<g>
</g>
<g>
</g>
<g>
</g>
<g>
</g>
<g>
</g>
<g>
</g>
<g>
</g>
<g>
</g>
<g>
</g>
<g>
</g>
</svg>
