<svg id="_x33_0" enable-background="new 0 0 64 64" height="512" viewBox="0 0 64 64" width="512" xmlns="http://www.w3.org/2000/svg"><g><path d="m29 25c1.654 0 3-1.346 3-3v-1h-2v1c0 .552-.449 1-1 1s-1-.448-1-1v-9h-2v9c0 1.654 1.346 3 3 3z"/><path d="m28 33h2v12h-2z"/><path d="m34 27h2v10h-2z"/><path d="m62.815 53.251-11.932-38.782-.176-.176c-1.479-1.479-3.445-2.293-5.536-2.293h-3.171c0-3.925-4.393-7-10-7-3.014 0-5.668.894-7.487 2.325-.925-.958-2.14-1.61-3.468-1.831-1.357-.227-2.45-1.235-2.784-2.569l-.635-2.544-2.774 1.849c-1.16.774-1.852 2.068-1.852 3.461 0 1.11.433 2.155 1.218 2.941l1.075 1.074 1.414-1.414-1.074-1.074c-.408-.407-.633-.949-.633-1.527 0-.724.36-1.396.962-1.798l.416-.277c.585 2.004 2.267 3.505 4.339 3.851.922.153 1.757.618 2.391 1.292-.706.964-1.108 2.063-1.108 3.241v13.507c-1.084-.939-2.482-1.507-4-1.507h-1.281l.645 2.58c.326 1.304-.062 2.703-1.012 3.653-.596.597-.993 1.334-1.195 2.131-1.345-.989-2.157-2.549-2.157-4.261 0-1.141.377-2.271 1.062-3.185l.738-.985c.774-1.031 1.2-2.31 1.2-3.696 0-1.76-.978-3.343-2.553-4.131l-.895 1.789c.893.446 1.448 1.343 1.448 2.438 0 .859-.284 1.712-.8 2.4l-.738.985c-.943 1.257-1.462 2.814-1.462 4.385 0 2.785 1.548 5.289 4.04 6.535l.037.019c.338 1.971 1.786 3.631 3.752 4.192l1.066.305-6.121 18.363c-.296.887-1.123 1.483-2.059 1.483-1.187 0-2.361-.182-3.49-.513l2.723-8.171-1.897-.633-2.697 8.091c-.853-.407-1.666-.903-2.409-1.498l-.132-.106c-.517-.413-.813-1.03-.813-1.693 0-.216.032-.431.096-.638l4.685-15.228c.694.459 1.46.814 2.277 1.051l-2.007 6.021 1.897.633 2.111-6.333c.113.004.223.017.336.017h1.605v-2h-1.605c-3.526 0-6.395-2.868-6.395-6.395 0-2.593-1.288-5-3.445-6.438l-1.109 1.664c1.599 1.067 2.554 2.852 2.554 4.774 0 2.138.81 4.086 2.131 5.57l-4.947 16.076c-.122.397-.184.811-.184 1.226 0 1.274.57 2.461 1.562 3.253l.131.106c2.552 2.04 5.756 3.164 9.022 3.164 1.797 0 3.387-1.146 3.956-2.851l6.148-18.446.181.052v16.245c0 3.925 4.393 7 10 7s10-3.075 10-7v-16.837l6.329 18.987c.568 1.704 2.158 2.85 3.956 2.85 3.267 0 6.471-1.124 9.025-3.167l.125-.101c.994-.794 1.565-1.981 1.565-3.255 0-.415-.062-.829-.185-1.226zm-20.815-35.261c2.348-.047 4.475-1.423 5.503-3.488.459.201.887.468 1.285.786-.625 1.44-1.66 2.669-3.015 3.482l-.257.155c-1.068.64-2.277.99-3.516 1.05zm3.171-3.99c.1 0 .196.022.296.027-.754 1.163-2.045 1.92-3.467 1.962v-1.989zm-13.171-7c4.336 0 8 2.29 8 5v39.764c-1.81-1.686-4.688-2.764-8-2.764s-6.19 1.078-8 2.764v-39.764c0-2.71 3.664-5 8-5zm-15 26.772v-.273c0-.699.272-1.356.767-1.852 1.414-1.414 2.008-3.482 1.568-5.427 1.296.442 2.318 1.515 2.666 2.902v8.551l-2.622-.749c-1.401-.399-2.379-1.695-2.379-3.152zm15 27.228c-1.447 0-2.814-.259-4-.7v-.3c0-2.757 2.243-5 5-5 .551 0 1 .448 1 1s-.449 1-1 1h-1v2h1c1.654 0 3-1.346 3-3s-1.346-3-3-3c-3.618 0-6.604 2.76-6.964 6.285-1.256-.887-2.036-2.04-2.036-3.285 0-2.71 3.664-5 8-5s8 2.29 8 5-3.664 5-8 5zm28.183-4.827-.125.101c-.745.596-1.558 1.093-2.412 1.5l-2.696-8.09-1.897.633 2.723 8.171c-1.131.33-2.305.512-3.491.512-.936 0-1.763-.596-2.059-1.483l-8.226-24.68v-10.862c1.602-.062 3.167-.509 4.545-1.335l.258-.155c1.191-.715 2.201-1.679 2.973-2.811l11.128 36.166c.064.206.096.421.096.637 0 .663-.296 1.28-.817 1.696z"/><path d="m52 33.675h2v12.649h-2z" transform="matrix(.949 -.316 .316 .949 -9.929 18.813)"/><path d="m45 25.675h2v12.649h-2z" transform="matrix(.949 -.316 .316 .949 -7.759 16.189)"/><path d="m15.482 15.316c1.459.291 2.518 1.583 2.518 3.072v.612h2v-.612c0-2.438-1.735-4.555-4.126-5.032-.819-.164-1.527-.638-1.991-1.334l-1.051-1.576-1.664 1.109 1.051 1.576c.761 1.14 1.92 1.917 3.263 2.185z"/><path d="m4.607 18.205 1.176.504c1.347.578 2.217 1.897 2.217 3.362 0 .977-.38 1.895-1.071 2.586l-.636.636 1.414 1.414.636-.636c1.068-1.069 1.657-2.489 1.657-4 0-2.266-1.346-4.307-3.429-5.2l-1.176-.504c-1.455-.624-2.395-2.05-2.395-3.633 0-.892.307-1.768.864-2.466l.337-.423c1.409-1.764 2.12-3.995 2.029-6.224.735.391 1.477.896 2.043 1.496l1.454-1.373c-1.054-1.116-2.706-2.122-4.419-2.693l-1.728-.575.442 1.767c.551 2.204.034 4.58-1.384 6.355l-.337.423c-.839 1.051-1.301 2.37-1.301 3.713 0 2.385 1.416 4.533 3.607 5.471z"/><path d="m7.618 11.123.601-.4c1.115-.744 1.781-1.989 1.781-3.328v-.395h-2v.395c0 .67-.333 1.292-.891 1.664l-.601.4c-.944.63-1.508 1.685-1.508 2.819 0 1.462.932 2.754 2.317 3.214l1.367.456.633-1.896-1.368-.457c-.568-.189-.949-.718-.949-1.317 0-.465.231-.897.618-1.155z"/></g></svg>