<?xml version="1.0" encoding="iso-8859-1"?>
<!-- Generator: Adobe Illustrator 19.0.0, SVG Export Plug-In . SVG Version: 6.00 Build 0)  -->
<svg version="1.1" id="Capa_1" xmlns="http://www.w3.org/2000/svg" xmlns:xlink="http://www.w3.org/1999/xlink" x="0px" y="0px"
	 viewBox="0 0 512 512" style="enable-background:new 0 0 512 512;" xml:space="preserve">
<g>
	<g>
		<path d="M334.461,416.896l-13.32-30.037c-6.4-14.438-9.66-29.756-9.677-45.534c-0.009-4.71-3.823-8.525-8.533-8.525h-153.6
			c-4.71,0-8.533,3.814-8.533,8.533v5.623c-0.017,17.374-4.156,34.756-11.981,50.295l-8.533,17.067
			c-8.951,17.903-13.662,37.931-13.619,57.916v31.232c0,4.719,3.823,8.533,8.533,8.533h221.867c4.71,0,8.533-3.814,8.542-8.533
			v-34.133C345.589,451.166,341.834,433.519,334.461,416.896z M328.53,494.933h-204.8h-0.009v-22.724
			c-0.034-17.365,4.053-34.748,11.819-50.27l8.525-17.041c8.567-17.024,13.303-35.994,13.756-55.04h136.858
			c0.998,15.164,4.634,29.901,10.854,43.913l13.321,30.037c6.4,14.438,9.66,29.756,9.677,45.525V494.933z"/>
	</g>
</g>
<g>
	<g>
		<path d="M343.481,79.71c-1.613-1.843-3.959-2.91-6.417-2.91H89.597c-3.149,0-6.042,1.732-7.526,4.506s-1.323,6.135,0.427,8.755
			l33.016,49.527l25.353,202.803c0.529,4.267,4.164,7.475,8.465,7.475h153.6c4.267,0,7.885-3.166,8.456-7.407l34.133-256
			C345.845,84.019,345.102,81.562,343.481,79.71z M295.447,332.8h-138.59l-24.67-197.325c-0.162-1.323-0.631-2.577-1.365-3.678
			l-25.284-37.931h221.764L295.447,332.8z"/>
	</g>
</g>
<g>
	<g>
		<path d="M294.397,34.133H157.864c-28.237,0-51.2,22.963-51.2,51.2c0,4.71,3.823,8.533,8.533,8.533h221.867
			c4.71,0,8.533-3.823,8.533-8.533C345.597,57.097,322.634,34.133,294.397,34.133z M124.806,76.8
			c3.797-14.703,17.178-25.6,33.058-25.6h136.533c15.872,0,29.252,10.897,33.05,25.6H124.806z"/>
	</g>
</g>
<g>
	<g>
		<path d="M260.264,0h-68.267c-4.71,0-8.533,3.823-8.533,8.533v34.133c0,4.71,3.823,8.533,8.533,8.533h68.267
			c4.71,0,8.533-3.823,8.533-8.533V8.533C268.797,3.823,264.983,0,260.264,0z M251.731,34.133h-51.2V17.067h51.2V34.133z"/>
	</g>
</g>
<g>
	<g>
		<path d="M405.331,110.933h-68.267V128h68.267c4.71,0,8.533,3.831,8.533,8.533v140.254c0.102,4.036-2.679,7.629-6.579,8.525
			l-97.707,22.101l3.763,16.648l97.749-22.11c11.81-2.739,20.147-13.491,19.84-25.387V136.533
			C430.931,122.419,419.445,110.933,405.331,110.933z"/>
	</g>
</g>
<g>
	<g>
		<path d="M388.255,145.067h-59.733v17.067h51.2v95.565l-70.118,15.573l3.703,16.666l76.8-17.067
			c3.908-0.879,6.682-4.335,6.682-8.337V153.6C396.789,148.89,392.974,145.067,388.255,145.067z"/>
	</g>
</g>
<g>
	<g>
		
			<rect x="179.201" y="127.893" transform="matrix(0.9989 -0.0476 0.0476 0.9989 -10.1438 9.1825)" width="17.067" height="179.377"/>
	</g>
</g>
<g>
	<g>
		
			<rect x="174.838" y="209.024" transform="matrix(0.0478 -0.9989 0.9989 0.0478 34.575 471.3838)" width="179.378" height="17.067"/>
	</g>
</g>
<g>
	<g>
		<path d="M226.131,384c-23.526,0-42.667,19.14-42.667,42.667s19.14,42.667,42.667,42.667c23.518,0,42.667-19.14,42.667-42.667
			S249.657,384,226.131,384z M226.131,452.267c-14.114,0-25.6-11.486-25.6-25.6s11.486-25.6,25.6-25.6s25.6,11.486,25.6,25.6
			S240.245,452.267,226.131,452.267z"/>
	</g>
</g>
<g>
</g>
<g>
</g>
<g>
</g>
<g>
</g>
<g>
</g>
<g>
</g>
<g>
</g>
<g>
</g>
<g>
</g>
<g>
</g>
<g>
</g>
<g>
</g>
<g>
</g>
<g>
</g>
<g>
</g>
</svg>
